<svg xmlns="http://www.w3.org/2000/svg" viewBox="0 0 48 48" height="30" width="43"><title>manga-japanese-comic-pirate-luffy-onepiece</title><g><path d="M17.44 16.76c1.42 0.2 2.82 0.4 4.24 0.46a36.22 36.22 0 0 0 6.42 -0.22 33.14 33.14 0 0 0 8.9 -2.48c0.6 -0.22 0.16 -1.58 -0.5 -1.24a32.24 32.24 0 0 1 -6.6 1.36 56 56 0 0 1 -6 0.32c-2 0 -4.1 0 -6.14 -0.22a45.12 45.12 0 0 1 -4.86 -0.42 14 14 0 0 1 -2 -0.58 0.7 0.7 0 0 0 -0.28 1.34 13.18 13.18 0 0 0 2 0.72c1.5 0.44 3.22 0.68 4.82 0.96Z" fill="#000000" fill-rule="evenodd" stroke-width="2"></path><path d="M46.86 34a4.32 4.32 0 0 1 -1.76 -0.96 8 8 0 0 1 -0.58 -0.58 7.04 7.04 0 0 0 0.9 -0.6 8.16 8.16 0 0 0 1.76 -1.84 0.9 0.9 0 0 0 0.18 -0.84 0.92 0.92 0 0 0 -0.62 -0.62 4.8 4.8 0 0 1 -2 -1.04 8.18 8.18 0 0 1 -1.16 -1.32 12 12 0 0 0 1.42 -1.08 8.86 8.86 0 0 0 1.26 -1.34 8.48 8.48 0 0 0 0.76 -1.12 7.36 7.36 0 0 0 0.62 -1.26 4.5 4.5 0 0 0 -1.42 -5.62 15.64 15.64 0 0 0 -7.18 -2.42A19.2 19.2 0 0 0 38.14 10a12.34 12.34 0 0 0 -3.56 -5.2 12.38 12.38 0 0 0 -4 -2.14 16.32 16.32 0 0 0 -4.28 -0.84 20.36 20.36 0 0 0 -8.6 1.44 14.36 14.36 0 0 0 -6.9 5.4 14.24 14.24 0 0 0 -1.72 4 11.26 11.26 0 0 0 -0.28 1.18 17.78 17.78 0 0 0 -3.82 1.24 10 10 0 0 0 -2.56 1.76A7.6 7.6 0 0 0 0 22.4a5.56 5.56 0 0 0 3.48 5.2l0.74 0.28a9.14 9.14 0 0 1 -0.88 0.88 14 14 0 0 1 -2 1.28 0.88 0.88 0 0 0 -0.42 0.66 0.9 0.9 0 0 0 0.26 0.74 6.5 6.5 0 0 0 2 1.6l0.72 0.3 -0.32 0.66a8.88 8.88 0 0 1 -1.52 1.48 1.1 1.1 0 0 0 0 1.78 8.72 8.72 0 0 0 4.36 1.64 8.34 8.34 0 0 0 4 -0.68 12.38 12.38 0 0 0 2 3.34A15.2 15.2 0 0 0 21.2 46a17.44 17.44 0 0 0 12.8 -2.98 14.7 14.7 0 0 0 4 -4.6 8.94 8.94 0 0 0 4.6 0.16A9.3 9.3 0 0 0 47.44 36a1.14 1.14 0 0 0 -0.58 -1.82ZM4.2 25.84a3.84 3.84 0 0 1 -2.52 -3.52 6 6 0 0 1 1.76 -4.48A9.22 9.22 0 0 1 6.22 16a15.42 15.42 0 0 1 2.34 -0.82 33.44 33.44 0 0 0 -0.36 3.68 0.6 0.6 0 0 0 0.42 0.58c0.88 0.52 0.12 -4.8 3.66 -9.78a13.08 13.08 0 0 1 6.24 -4.3 19.1 19.1 0 0 1 7.64 -1.24A15.22 15.22 0 0 1 30 4.8a10.34 10.34 0 0 1 3.34 1.6 10.46 10.46 0 0 1 3.2 4.32c1.82 4.4 1.8 9 2.44 9.1a0.68 0.68 0 0 0 0.62 -0.74c0 -1.38 -0.16 -2.8 -0.34 -4.2a13.1 13.1 0 0 1 6 2.22 2.98 2.98 0 0 1 0.74 3.74 7.24 7.24 0 0 1 -0.5 0.96 11.32 11.32 0 0 1 -0.68 0.94 7.18 7.18 0 0 1 -1.04 1.02 10 10 0 0 1 -1.24 0.88 17.76 17.76 0 0 1 -2.12 1.1 19.1 19.1 0 0 1 -2.24 0.86 28.26 28.26 0 0 1 -5 1.12 69.02 69.02 0 0 1 -7.8 0.62 73.44 73.44 0 0 1 -12.88 -0.5 36.74 36.74 0 0 1 -8.3 -2Zm38 10.98a7.6 7.6 0 0 1 -3.46 0.3 16.98 16.98 0 0 0 1.4 -5.44 0.7 0.7 0 0 0 -0.6 -0.78 0.68 0.68 0 0 0 -0.76 0.6 13.88 13.88 0 0 1 -6 9.86 14.58 14.58 0 0 1 -5.38 2.2 16.38 16.38 0 0 1 -5.84 0.18 13.12 13.12 0 0 1 -7.8 -3.54 11.64 11.64 0 0 1 -3.28 -8 0.6 0.6 0 0 0 -0.6 -0.6 0.62 0.62 0 0 0 -0.62 0.62 15.4 15.4 0 0 0 0.6 4.54 6.74 6.74 0 0 1 -3.26 0.24 6.9 6.9 0 0 1 -2 -0.76l0.48 -0.48a14 14 0 0 0 1.82 -2.64 1.18 1.18 0 0 0 0 -1.1 1.1 1.1 0 0 0 -0.92 -0.6 5.86 5.86 0 0 1 -1.78 -0.34l-0.72 -0.32a14 14 0 0 0 0.96 -0.92 14 14 0 0 0 1.18 -1.46 38.4 38.4 0 0 0 6.5 1.62 70.68 70.68 0 0 0 13.28 0.62 68.92 68.92 0 0 0 8 -0.72 30 30 0 0 0 5.32 -1.36 23.18 23.18 0 0 0 2.44 -1c0.4 -0.2 0.78 -0.44 1.18 -0.68a8.82 8.82 0 0 0 1.24 1.78 6.34 6.34 0 0 0 1.26 1.06 5.24 5.24 0 0 1 -0.68 0.48 6.52 6.52 0 0 1 -1.78 0.74 1.1 1.1 0 0 0 -0.72 0.68 1.08 1.08 0 0 0 0 0.96 8.2 8.2 0 0 0 1.82 2.3 8.28 8.28 0 0 0 0.96 0.68 7.7 7.7 0 0 1 -2.26 1.28Z" fill="#000000" fill-rule="evenodd" stroke-width="2"></path><path d="M17.4 23.42c1.14 0.2 2.3 0.42 3.48 0.58 0.82 0.1 1.64 0.14 2.44 0.16a33.14 33.14 0 0 0 8.24 -1.14A25.52 25.52 0 0 0 38 20.32c0.56 -0.26 0.26 -1.34 -0.66 -1.18s-3.44 1.34 -6.28 2a31.72 31.72 0 0 1 -7.74 0.72l-1.66 0c-1.34 -0.1 -2.7 -0.26 -4 -0.4a21.72 21.72 0 0 1 -5.4 -0.98 8.42 8.42 0 0 1 -2.42 -1.56c-0.6 -0.36 -0.8 0.44 -0.52 1.18a7.34 7.34 0 0 0 2.36 1.8 23.2 23.2 0 0 0 5.72 1.52Z" fill="#000000" fill-rule="evenodd" stroke-width="2"></path><path d="M30.92 33.82a15.82 15.82 0 0 1 -2 1.66 8.28 8.28 0 0 1 -2.14 1.08 7.76 7.76 0 0 1 -2.3 0.42 10.54 10.54 0 0 1 -2.38 -0.2 11.56 11.56 0 0 1 -4.64 -2 0.6 0.6 0 1 0 -0.8 0.9 11.8 11.8 0 0 0 4.9 3.16 8 8 0 0 0 6 -0.34 10.18 10.18 0 0 0 2 -1.32A17.04 17.04 0 0 0 32 34.74a0.7 0.7 0 0 0 0 -0.98 0.72 0.72 0 0 0 -1.08 0.06Z" fill="#000000" fill-rule="evenodd" stroke-width="2"></path></g></svg>